<svg width="189" height="40" viewBox="0 0 189 40" fill="none" xmlns="http://www.w3.org/2000/svg">
<path d="M35.2454 2.09378H12.1701L7.241 6.97928L0 38.386H13.0425L14.6129 31.494H19.2366L17.6663 38.386H30.7525L37.9062 7.41549L35.2454 2.09378ZM17.1865 20.3272L18.7568 13.566H23.3806L21.8102 20.3272H17.1865Z" fill="white"/>
<path d="M42.8381 1.9193L34.3757 38.5169H49.5556L58.018 1.9193H42.8381Z" fill="white"/>
<path d="M98.3949 12.7808L101.143 0.916029H62.6697L59.9216 12.7808H71.0012L67.5988 27.4809H55.6032L52.8115 39.6074H93.3785L96.1703 27.4809H83.8257L87.228 12.7808H98.3949Z" fill="white"/>
<path d="M144.676 0H106.77L100.794 25.8233H99.0056L96.9118 34.9836H99.878L96.9554 37.0774L96.3011 40H112.397L116.934 34.9836H118.809L121.47 40H136.694L137.392 36.9902L135.167 34.9836H138.264L140.401 25.8233H138.7L144.676 0ZM130.456 8.81134L130.107 10.2508H116.192L116.541 8.81134H130.456ZM128.886 15.5725H114.971L115.32 14.133H129.235L128.886 15.5725ZM127.97 19.4547L127.664 20.8942H113.749L114.055 19.4547H127.97ZM126.748 24.7764L126.399 26.2595H112.484L112.833 24.7764H126.748Z" fill="white"/>
<path d="M186.421 11.3413L188.995 0.218102H149.605L147.032 11.3413H158.504L157.762 14.6565H147.119L144.676 25.2563H155.32L154.578 28.5278H142.059L139.442 39.8255H180.838L183.455 28.5278H170.805L171.546 25.2563H182.452L184.894 14.6565H173.989L174.731 11.3413H186.421Z" fill="white"/>
</svg>
