<svg width="540" height="180" viewBox="0 0 540 180" fill="none" xmlns="http://www.w3.org/2000/svg">
<g clip-path="url(#clip0_111_164)">
<rect x="440" width="20" height="180" fill="white"/>
<path fill-rule="evenodd" clip-rule="evenodd" d="M452.388 141.732C457.413 153.864 460 166.868 460 180H440C440 169.494 437.931 159.091 433.91 149.385C429.89 139.679 423.997 130.86 416.569 123.431C409.14 116.003 400.321 110.11 390.615 106.09C380.909 102.069 370.506 100 360 100L360 80C373.132 80 386.136 82.5866 398.268 87.612C410.401 92.6375 421.425 100.003 430.711 109.289C439.997 118.575 447.362 129.599 452.388 141.732Z" fill="white"/>
<path fill-rule="evenodd" clip-rule="evenodd" d="M501.732 87.612C513.864 82.5866 526.868 80 540 80L540 100C529.494 100 519.091 102.069 509.385 106.09C499.679 110.11 490.86 116.003 483.431 123.431C476.003 130.86 470.11 139.679 466.09 149.385C462.069 159.091 460 169.494 460 180L440 180C440 166.868 442.587 153.864 447.612 141.732C452.638 129.599 460.003 118.575 469.289 109.289C478.575 100.003 489.599 92.6375 501.732 87.612Z" fill="white"/>
<rect x="260" width="20" height="180" fill="white"/>
<path fill-rule="evenodd" clip-rule="evenodd" d="M272.388 141.732C277.413 153.864 280 166.868 280 180H260C260 169.494 257.931 159.091 253.91 149.385C249.89 139.679 243.997 130.86 236.569 123.431C229.14 116.003 220.321 110.11 210.615 106.09C200.909 102.069 190.506 100 180 100L180 80C193.132 80 206.136 82.5866 218.268 87.612C230.401 92.6375 241.425 100.003 250.711 109.289C259.997 118.575 267.362 129.599 272.388 141.732Z" fill="white"/>
<path fill-rule="evenodd" clip-rule="evenodd" d="M321.732 87.612C333.864 82.5866 346.868 80 360 80L360 100C349.494 100 339.091 102.069 329.385 106.09C319.679 110.11 310.86 116.003 303.431 123.431C296.003 130.86 290.11 139.679 286.09 149.385C282.069 159.091 280 169.494 280 180L260 180C260 166.868 262.587 153.864 267.612 141.732C272.638 129.599 280.003 118.575 289.289 109.289C298.575 100.003 309.599 92.6375 321.732 87.612Z" fill="white"/>
<rect x="80" width="20" height="180" fill="white"/>
<path fill-rule="evenodd" clip-rule="evenodd" d="M92.388 141.732C97.4134 153.864 100 166.868 100 180H80C80 169.494 77.9307 159.091 73.9104 149.385C69.89 139.679 63.9972 130.86 56.5685 123.431C49.1399 116.003 40.3207 110.11 30.6147 106.09C20.9086 102.069 10.5058 100 8.74228e-07 100L0 80C13.1322 80 26.1358 82.5866 38.2683 87.612C50.4009 92.6375 61.4248 100.003 70.7107 109.289C79.9965 118.575 87.3625 129.599 92.388 141.732Z" fill="white"/>
<path fill-rule="evenodd" clip-rule="evenodd" d="M141.732 87.612C153.864 82.5866 166.868 80 180 80L180 100C169.494 100 159.091 102.069 149.385 106.09C139.679 110.11 130.86 116.003 123.431 123.431C116.003 130.86 110.11 139.679 106.09 149.385C102.069 159.091 100 169.494 100 180L80 180C80 166.868 82.5866 153.864 87.612 141.732C92.6375 129.599 100.003 118.575 109.289 109.289C118.575 100.003 129.599 92.6375 141.732 87.612Z" fill="white"/>
</g>
<defs>
<clipPath id="clip0_111_164">
<rect width="540" height="180" fill="white"/>
</clipPath>
</defs>
</svg>
